<?xml version="1.0" encoding="UTF-8"?>
<svg width="368.03mm" height="181.05mm" version="1.1" viewBox="0 0 368.03 181.05" xmlns="http://www.w3.org/2000/svg" xmlns:cc="http://creativecommons.org/ns#" xmlns:dc="http://purl.org/dc/elements/1.1/" xmlns:rdf="http://www.w3.org/1999/02/22-rdf-syntax-ns#"><metadata><rdf:RDF><cc:Work rdf:about=""><dc:format>image/svg+xml</dc:format><dc:type rdf:resource="http://purl.org/dc/dcmitype/StillImage"/></cc:Work></rdf:RDF></metadata><rect width="368.03" height="181.05" fill="#fff"/><g transform="translate(21.133 -14.475)" font-family="sans-serif" font-size="10.583px" letter-spacing="0px" stroke-width=".26458" word-spacing="0px"><text x="158.56369" y="190.11879" style="line-height:1.25" xml:space="preserve"><tspan x="158.56369" y="190.11879" stroke-width=".26458">Angle</tspan></text><text transform="rotate(-90)" x="-130.1528" y="-10.121707" style="line-height:1.25" xml:space="preserve"><tspan x="-130.1528" y="-10.121707" stroke-width=".26458">Displacement</tspan></text></g><g transform="translate(-.28395 -2.9412)" stroke="#000"><g transform="translate(67.417 199.84)"><g transform="translate(-44.958 -68.359)" fill="none" stroke-linejoin="bevel"><path d="m-0.62695-43.645 74.652 74.652h-74.652z" stroke-dasharray="1, 1"/><path d="m-0.61705-119.8v75.403l74.642 75.403v-150.81z" stroke-width="2"/></g><g transform="matrix(-.75 0 0 -.75 13.637 49.192)"><path transform="rotate(90)" d="m240.75-41.389a24.404 24.404 0 0 1-12.202 21.134 24.404 24.404 0 0 1-24.404 0 24.404 24.404 0 0 1-12.202-21.134h24.404z" fill="#e5e5e5" stroke-dasharray="1.33333, 1.33333" stroke-width="1.3333"/><path transform="rotate(225)" d="m-157.24-123.71a25 25 0 0 1-7.3223 17.678l-17.678-17.678z" fill="#747474" stroke-linejoin="round"/></g></g><g transform="translate(55.725 197.02)"><g transform="matrix(-.75 0 0 -.75 140.68 62.912)"><path transform="rotate(90)" d="m255.06-78.487a24.404 24.404 0 0 1-12.202 21.134 24.404 24.404 0 0 1-24.404-1e-6 24.404 24.404 0 0 1-12.202-21.134h24.404z" fill="#e5e5e5" stroke-dasharray="1.33333, 1.33333" stroke-width="1.3333"/><path transform="matrix(-.70711 -.70711 -.70711 .70711 0 0)" d="m-193.59 107.6a25 25 0 0 1-7.3223 17.678l-17.678-17.678z" fill="#747474" stroke-linejoin="round"/></g><g transform="translate(54.428 -65.538)" fill="none" stroke-linejoin="bevel"><path d="m-0.62695-43.645 74.652 74.652h-74.652z" stroke-dasharray="1, 1"/><path d="m-0.61705-119.8v75.403l74.642 75.403v-150.81z" stroke-width="2"/></g></g><g transform="translate(47.598 196.68)"><g transform="matrix(-.75 0 0 -.75 281.92 73.042)"><path transform="rotate(90)" d="m268.12-139.04a24.404 24.404 0 0 1-12.202 21.134 24.404 24.404 0 0 1-24.404 0 24.404 24.404 0 0 1-12.202-21.134h24.404z" fill="#e5e5e5" stroke-dasharray="1.33333, 1.33333" stroke-width="1.3333"/><path transform="rotate(135)" d="m99.022-270.65a25 25 0 0 1-7.3223 17.678l-17.678-17.678z" fill="#747474" stroke-linejoin="round"/></g><g transform="translate(150.25 -65.2)" fill="none" stroke-linejoin="bevel"><path d="m-0.62695-43.645 74.652 74.652h-74.652z" stroke-dasharray="1, 1"/><path d="m-0.61705-119.8v75.403l74.642 75.403v-150.81z" stroke-width="2"/></g></g><g transform="translate(41.869 197.94)"><g transform="matrix(-.75 0 0 -.75 403.23 73.155)"><path transform="rotate(90)" d="m269.72-176a24.404 24.404 0 0 1-12.202 21.134 24.404 24.404 0 0 1-24.404 0 24.404 24.404 0 0 1-12.202-21.134h24.404z" fill="#e5e5e5" stroke-dasharray="1.33333, 1.33333" stroke-width="1.3333"/><path transform="matrix(-.70711 .70711 .70711 .70711 0 0)" d="m74.009 297.92a25 25 0 0 1-7.3223 17.678l-17.678-17.678z" fill="#747474" stroke-linejoin="round"/></g><g transform="translate(243.67 -66.459)" fill="none" stroke-linejoin="bevel"><path d="m-0.62695-43.645 74.652 74.652h-74.652z" stroke-dasharray="1, 1"/><path d="m-0.61705-119.8v75.403l74.642 75.403v-150.81z" stroke-width="2"/></g></g></g><g transform="rotate(180 301.02 112.02)"><g transform="matrix(0 .625 -.625 0 375.19 156.01)"><rect transform="rotate(-90)" x="-211.88" y="-146.41" width="25" height="25" fill="#8bb4ff"/><path d="m-131.07 178.51 18.028 18.028" fill="none" stroke="#f00" stroke-linecap="round" stroke-width="1.8295"/></g><g transform="matrix(0 -.625 .625 0 125.97 123.8)"><rect transform="rotate(-90)" x="-211.88" y="-146.41" width="25" height="25" fill="#8bb4ff"/><path d="m-131.07 178.51 18.028 18.028" fill="none" stroke="#f00" stroke-linecap="round" stroke-width="1.8295"/></g><g transform="matrix(-.625 0 0 -.625 290.1 245.33)"><rect x="-44.611" y="143.44" width="25" height="25" fill="#8bb4ff"/><path d="m-43.696 143.19v25.496" fill="none" stroke="#f00" stroke-linecap="round" stroke-width="1.8295"/></g><g transform="matrix(-.625 0 0 -.625 285.66 285.53)"><rect x="-50.798" y="112.35" width="25" height="25" fill="#8bb4ff"/><path d="m-26.713 112.1v25.496" fill="none" stroke="#f00" stroke-linecap="round" stroke-width="1.8295"/></g></g><g transform="translate(46.151 -56.211)"><g transform="matrix(.625 0 0 .625 7.1562 -5.2665)"><rect x="-50.798" y="112.35" width="25" height="25" fill="#8bb4ff"/><path d="m-26.713 112.1v25.496" fill="none" stroke="#f00" stroke-linecap="round" stroke-width="1.8295"/></g><g transform="matrix(.625 0 0 .625 3.2893 35.083)"><rect x="-44.611" y="143.44" width="25" height="25" fill="#8bb4ff"/><path d="m-43.696 143.19v25.496" fill="none" stroke="#f00" stroke-linecap="round" stroke-width="1.8295"/></g><g transform="matrix(.625 0 0 .625 125.93 -51.846)"><rect transform="rotate(-90)" x="-211.88" y="-146.41" width="25" height="25" fill="#8bb4ff"/><path d="m-131.07 178.51 18.028 18.028" fill="none" stroke="#f00" stroke-linecap="round" stroke-width="1.8295"/></g><g transform="matrix(-.625 0 0 -.625 -41.459 332.56)"><rect transform="rotate(-90)" x="-211.88" y="-146.41" width="25" height="25" fill="#8bb4ff"/><path d="m-131.07 178.51 18.028 18.028" fill="none" stroke="#f00" stroke-linecap="round" stroke-width="1.8295"/></g></g><g transform="rotate(180 124.12 112.1)"><g transform="matrix(-.625 0 0 -.625 -11.548 197.08)"><rect transform="rotate(-90)" x="-211.88" y="-146.41" width="25" height="25" fill="#8bb4ff"/><path d="m-131.07 178.51 18.028 18.028" fill="none" stroke="#f00" stroke-linecap="round" stroke-width="1.8295"/></g><g transform="matrix(.625 0 0 .625 155.84 83.038)"><rect transform="rotate(-90)" x="-211.88" y="-146.41" width="25" height="25" fill="#8bb4ff"/><path d="m-131.07 178.51 18.028 18.028" fill="none" stroke="#f00" stroke-linecap="round" stroke-width="1.8295"/></g><g transform="matrix(-.625 0 0 -.625 100.33 268.45)"><rect transform="rotate(-90)" x="-205.42" y="-61.83" width="25" height="25" fill="#8bb4ff"/><path d="m-62.078 181.34h25.496" fill="none" stroke="#f00" stroke-linecap="round" stroke-width="1.8295"/></g><g transform="matrix(-.625 0 0 -.625 96.234 347.65)"><rect transform="rotate(-90)" x="-236.51" y="-68.391" width="25" height="25" fill="#8bb4ff"/><path d="m-68.639 235.59h25.496" fill="none" stroke="#f00" stroke-linecap="round" stroke-width="1.8295"/></g></g><g transform="translate(43.682 -56.211)"><g transform="matrix(.625 0 0 .625 196.16 -6.8906)"><rect transform="rotate(-90)" x="-236.51" y="-68.391" width="25" height="25" fill="#8bb4ff"/><path d="m-68.639 235.59h25.496" fill="none" stroke="#f00" stroke-linecap="round" stroke-width="1.8295"/></g><g transform="matrix(.625 0 0 .625 192.06 -48.383)"><rect transform="rotate(-90)" x="-205.42" y="-61.83" width="25" height="25" fill="#8bb4ff"/><path d="m-62.078 181.34h25.496" fill="none" stroke="#f00" stroke-linecap="round" stroke-width="1.8295"/></g><g transform="matrix(0 -.625 .625 0 95.482 -10.931)"><rect transform="rotate(-90)" x="-211.88" y="-146.41" width="25" height="25" fill="#8bb4ff"/><path d="m-131.07 178.51 18.028 18.028" fill="none" stroke="#f00" stroke-linecap="round" stroke-width="1.8295"/></g><g transform="matrix(0 .625 -.625 0 344.71 291.64)"><rect transform="rotate(-90)" x="-211.88" y="-146.41" width="25" height="25" fill="#8bb4ff"/><path d="m-131.07 178.51 18.028 18.028" fill="none" stroke="#f00" stroke-linecap="round" stroke-width="1.8295"/></g></g></svg>
